<?xml version="1.0" encoding="UTF-8" standalone="no"?>
<svg
   xmlns:dc="http://purl.org/dc/elements/1.1/"
   xmlns:cc="http://creativecommons.org/ns#"
   xmlns:rdf="http://www.w3.org/1999/02/22-rdf-syntax-ns#"
   xmlns:svg="http://www.w3.org/2000/svg"
   xmlns="http://www.w3.org/2000/svg"
   viewBox="0 0 672 384"
   height="384"
   width="672"
   xml:space="preserve"
   id="svg2"
   version="1.1"><metadata
     id="metadata8"><rdf:RDF><cc:Work
         rdf:about=""><dc:format>image/svg+xml</dc:format><dc:type
           rdf:resource="http://purl.org/dc/dcmitype/StillImage" /></cc:Work></rdf:RDF></metadata><defs
     id="defs6"><clipPath
       id="clipPath18"
       clipPathUnits="userSpaceOnUse"><path
         id="path16"
         d="M 0,288 H 504 V 0 H 0 Z" /></clipPath></defs><g
     transform="matrix(1.3333333,0,0,-1.3333333,0,384)"
     id="g10"><g
       id="g12"><g
         clip-path="url(#clipPath18)"
         id="g14"><g
           transform="translate(159.3131,16.8306)"
           id="g20"><path
             id="path22"
             style="fill:#000102;fill-opacity:1;fill-rule:nonzero;stroke:none"
             d="M 0,0 C 1.315,0 2.338,0.24 3.068,0.72 3.799,1.2 4.164,1.978 4.164,3.051 4.164,3.668 4.046,4.186 3.811,4.601 3.576,5.015 3.263,5.365 2.874,5.649 2.484,5.933 2.037,6.177 1.534,6.379 1.032,6.581 0.503,6.795 -0.049,7.021 -0.746,7.294 -1.372,7.577 -1.922,7.867 -2.474,8.158 -2.946,8.485 -3.334,8.85 c -0.39,0.366 -0.687,0.784 -0.889,1.254 -0.204,0.471 -0.305,1.023 -0.305,1.656 0,1.445 0.478,2.541 1.436,3.287 0.957,0.746 2.289,1.119 3.994,1.119 0.453,0 0.9,-0.032 1.338,-0.097 0.438,-0.065 0.849,-0.15 1.23,-0.255 0.382,-0.105 0.731,-0.223 1.047,-0.354 0.317,-0.129 0.58,-0.267 0.791,-0.413 L 4.724,13.659 c -0.472,0.324 -1.043,0.585 -1.717,0.779 -0.673,0.196 -1.4,0.293 -2.179,0.293 -0.535,0 -1.026,-0.053 -1.473,-0.158 -0.447,-0.107 -0.832,-0.278 -1.157,-0.512 -0.324,-0.236 -0.579,-0.531 -0.767,-0.889 -0.185,-0.357 -0.278,-0.788 -0.278,-1.29 0,-0.52 0.097,-0.958 0.291,-1.315 0.195,-0.358 0.467,-0.666 0.815,-0.925 C -1.391,9.383 -0.982,9.147 -0.51,8.936 -0.04,8.725 0.472,8.506 1.024,8.279 1.688,8.003 2.318,7.727 2.91,7.451 3.502,7.175 4.018,6.85 4.456,6.477 4.895,6.103 5.243,5.649 5.503,5.114 5.763,4.578 5.893,3.921 5.893,3.141 5.893,1.616 5.361,0.472 4.298,-0.291 3.234,-1.054 1.793,-1.435 -0.024,-1.435 c -0.649,0 -1.241,0.04 -1.778,0.12 -0.535,0.082 -1.014,0.183 -1.435,0.305 -0.423,0.122 -0.78,0.247 -1.072,0.378 -0.292,0.13 -0.519,0.244 -0.681,0.341 l 0.535,1.435 c 0.162,-0.097 0.382,-0.211 0.658,-0.34 0.276,-0.13 0.6,-0.256 0.973,-0.377 C -2.451,0.305 -2.029,0.204 -1.558,0.122 -1.087,0.04 -0.567,0 0,0" /></g><g
           transform="translate(170.2464,18.0248)"
           id="g24"><path
             id="path26"
             style="fill:#000102;fill-opacity:1;fill-rule:nonzero;stroke:none"
             d="m 0,0 c 0.146,-0.114 0.329,-0.236 0.548,-0.366 0.219,-0.131 0.474,-0.251 0.767,-0.365 0.291,-0.114 0.607,-0.207 0.948,-0.28 0.342,-0.074 0.698,-0.11 1.073,-0.11 0.778,0 1.431,0.135 1.959,0.403 0.527,0.267 0.953,0.632 1.278,1.095 0.324,0.462 0.56,1.006 0.706,1.631 0.147,0.624 0.219,1.286 0.219,1.984 0,1.656 -0.413,2.926 -1.241,3.811 C 5.429,8.686 4.333,9.129 2.969,9.129 2.191,9.129 1.562,9.093 1.083,9.019 0.605,8.947 0.243,8.87 0,8.789 Z M 0,-6.77 H -1.583 V 9.885 c 0.471,0.161 1.071,0.316 1.802,0.462 0.73,0.145 1.655,0.219 2.775,0.219 0.926,0 1.766,-0.15 2.52,-0.451 C 6.269,9.815 6.918,9.381 7.462,8.813 8.005,8.244 8.427,7.555 8.728,6.743 9.028,5.932 9.179,5.015 9.179,3.992 9.179,3.035 9.053,2.154 8.802,1.351 8.549,0.548 8.18,-0.143 7.693,-0.718 7.207,-1.295 6.61,-1.746 5.904,-2.071 5.198,-2.395 4.39,-2.558 3.481,-2.558 2.653,-2.558 1.935,-2.44 1.326,-2.204 0.718,-1.969 0.276,-1.746 0,-1.534 Z" /></g><g
           transform="translate(192.4015,22.0414)"
           id="g28"><path
             id="path30"
             style="fill:#000102;fill-opacity:1;fill-rule:nonzero;stroke:none"
             d="M 0,0 C 0,1.574 -0.365,2.828 -1.096,3.761 -1.827,4.695 -2.817,5.162 -4.067,5.162 -5.316,5.162 -6.306,4.695 -7.036,3.761 -7.767,2.828 -8.132,1.574 -8.132,0 c 0,-1.574 0.365,-2.824 1.096,-3.749 0.73,-0.925 1.72,-1.388 2.969,-1.388 1.25,0 2.24,0.463 2.971,1.388 C -0.365,-2.824 0,-1.574 0,0 m 1.68,0 c 0,-0.99 -0.142,-1.89 -0.426,-2.703 -0.285,-0.812 -0.683,-1.501 -1.193,-2.069 -0.512,-0.568 -1.116,-1.01 -1.814,-1.326 -0.698,-0.318 -1.469,-0.476 -2.314,-0.476 -0.843,0 -1.614,0.158 -2.312,0.476 -0.699,0.316 -1.303,0.758 -1.814,1.326 -0.511,0.568 -0.91,1.257 -1.192,2.069 C -9.67,-1.89 -9.813,-0.99 -9.813,0 c 0,0.99 0.143,1.89 0.428,2.703 0.282,0.812 0.681,1.505 1.192,2.081 0.511,0.577 1.115,1.023 1.814,1.339 0.698,0.317 1.469,0.475 2.312,0.475 0.845,0 1.616,-0.158 2.314,-0.475 C -1.055,5.807 -0.451,5.361 0.061,4.784 0.571,4.208 0.969,3.515 1.254,2.703 1.538,1.89 1.68,0.99 1.68,0" /></g><g
           transform="translate(202.2849,28.5906)"
           id="g32"><path
             id="path34"
             style="fill:#000102;fill-opacity:1;fill-rule:nonzero;stroke:none"
             d="m 0,0 c 0.52,0 1.011,-0.04 1.473,-0.122 0.463,-0.08 0.784,-0.162 0.962,-0.243 L 2.118,-1.728 c -0.129,0.064 -0.393,0.133 -0.791,0.207 -0.398,0.073 -0.921,0.109 -1.57,0.109 -0.682,0 -1.23,-0.048 -1.643,-0.146 -0.415,-0.098 -0.687,-0.178 -0.816,-0.244 v -11.029 h -1.582 v 12.003 c 0.405,0.179 0.965,0.362 1.679,0.548 C -1.89,-0.093 -1.022,0 0,0" /></g><g
           transform="translate(209.0768,28.3479)"
           id="g36"><path
             id="path38"
             style="fill:#000102;fill-opacity:1;fill-rule:nonzero;stroke:none"
             d="M 0,0 H 5.017 V -1.34 H 0 v -6.695 c 0,-0.714 0.061,-1.295 0.183,-1.74 0.122,-0.447 0.297,-0.792 0.524,-1.036 0.226,-0.243 0.502,-0.405 0.827,-0.487 0.325,-0.081 0.682,-0.121 1.072,-0.121 0.666,0 1.201,0.077 1.606,0.23 0.407,0.154 0.723,0.297 0.95,0.428 l 0.39,-1.315 c -0.228,-0.147 -0.626,-0.314 -1.193,-0.499 -0.568,-0.188 -1.186,-0.281 -1.85,-0.281 -0.779,0 -1.433,0.102 -1.961,0.304 -0.527,0.204 -0.949,0.512 -1.265,0.925 -0.318,0.415 -0.541,0.929 -0.67,1.547 -0.13,0.617 -0.196,1.346 -0.196,2.191 V 3.7 L 0,3.992 Z" /></g><g
           transform="translate(220.0808,16.8792)"
           id="g40"><path
             id="path42"
             style="fill:#000102;fill-opacity:1;fill-rule:nonzero;stroke:none"
             d="M 0,0 C 0.91,0 1.66,0.151 2.252,0.451 2.845,0.752 3.141,1.258 3.141,1.972 3.141,2.313 3.089,2.606 2.983,2.849 2.878,3.093 2.703,3.312 2.459,3.506 2.216,3.702 1.896,3.888 1.498,4.067 1.1,4.245 0.609,4.456 0.025,4.699 c -0.472,0.196 -0.917,0.394 -1.34,0.598 -0.421,0.202 -0.795,0.438 -1.119,0.706 -0.325,0.267 -0.584,0.588 -0.78,0.961 -0.194,0.373 -0.291,0.828 -0.291,1.363 0,1.022 0.384,1.85 1.156,2.484 0.771,0.633 1.83,0.949 3.177,0.949 0.86,0 1.571,-0.072 2.13,-0.219 0.561,-0.146 0.955,-0.276 1.182,-0.39 L 3.774,9.739 C 3.58,9.836 3.251,9.967 2.788,10.129 2.326,10.291 1.648,10.373 0.756,10.373 0.398,10.373 0.061,10.336 -0.255,10.262 -0.571,10.19 -0.852,10.075 -1.096,9.921 -1.338,9.767 -1.533,9.571 -1.68,9.336 -1.825,9.1 -1.899,8.811 -1.899,8.47 c 0,-0.342 0.065,-0.635 0.196,-0.879 0.129,-0.244 0.32,-0.459 0.571,-0.647 C -0.881,6.757 -0.571,6.582 -0.207,6.422 0.16,6.261 0.577,6.083 1.047,5.889 1.534,5.695 2.001,5.496 2.448,5.294 2.893,5.093 3.287,4.85 3.628,4.566 3.969,4.282 4.245,3.94 4.456,3.544 4.667,3.146 4.772,2.646 4.772,2.046 4.772,0.91 4.347,0.05 3.494,-0.535 2.642,-1.119 1.477,-1.412 0,-1.412 c -1.104,0 -1.947,0.094 -2.531,0.28 -0.585,0.187 -0.974,0.329 -1.169,0.426 l 0.414,1.437 C -3.237,0.699 -3.132,0.646 -2.969,0.573 -2.807,0.499 -2.588,0.419 -2.312,0.329 -2.036,0.24 -1.707,0.162 -1.326,0.098 -0.945,0.033 -0.502,0 0,0" /></g><path
           id="path44"
           style="fill:#00b2c4;fill-opacity:1;fill-rule:nonzero;stroke:none"
           d="m 235.273,34.824 h 1.51 V 11.256 h -1.51 z" /><g
           transform="translate(250.0763,23.868)"
           id="g46"><path
             id="path48"
             style="fill:#000102;fill-opacity:1;fill-rule:nonzero;stroke:none"
             d="m 0,0 v -6.671 c 0.243,-0.033 0.607,-0.07 1.096,-0.11 0.487,-0.041 0.98,-0.061 1.484,-0.061 0.746,0 1.473,0.049 2.179,0.146 0.707,0.098 1.326,0.277 1.864,0.538 0.535,0.261 0.965,0.619 1.287,1.075 0.327,0.456 0.488,1.043 0.488,1.76 0,0.65 -0.111,1.193 -0.338,1.624 C 7.832,-1.268 7.505,-0.925 7.083,-0.673 6.662,-0.42 6.146,-0.245 5.538,-0.147 4.931,-0.05 4.252,0 3.505,0 Z m 0,1.412 h 3.214 c 0.6,0 1.167,0.044 1.705,0.133 0.533,0.089 0.999,0.25 1.399,0.484 0.399,0.235 0.71,0.551 0.937,0.946 0.228,0.397 0.339,0.902 0.339,1.516 0,0.549 -0.12,1.015 -0.364,1.395 C 6.989,6.265 6.642,6.577 6.195,6.82 5.749,7.061 5.219,7.236 4.6,7.34 3.983,7.445 3.302,7.498 2.556,7.498 1.956,7.498 1.448,7.483 1.035,7.449 0.62,7.417 0.275,7.377 0,7.327 Z m 2.386,-9.666 c -0.276,0 -0.597,0.011 -0.962,0.036 -0.366,0.025 -0.739,0.057 -1.12,0.097 -0.382,0.041 -0.742,0.089 -1.083,0.147 -0.342,0.056 -0.634,0.117 -0.877,0.182 v 16.24 c 0.293,0.08 0.617,0.15 0.974,0.207 C -0.326,8.711 0.044,8.76 0.426,8.8 0.807,8.842 1.18,8.87 1.545,8.886 1.911,8.901 2.247,8.91 2.556,8.91 3.465,8.91 4.329,8.838 5.147,8.692 5.968,8.545 6.686,8.302 7.305,7.962 7.921,7.621 8.409,7.172 8.775,6.613 9.141,6.054 9.324,5.361 9.324,4.534 9.324,3.627 9.091,2.853 8.631,2.214 8.17,1.573 7.549,1.132 6.767,0.888 7.255,0.774 7.699,0.612 8.109,0.401 8.514,0.189 8.87,-0.083 9.18,-0.416 c 0.305,-0.333 0.544,-0.739 0.716,-1.219 0.172,-0.48 0.255,-1.053 0.255,-1.719 0,-1.593 -0.632,-2.808 -1.897,-3.645 C 6.989,-7.836 5.03,-8.254 2.386,-8.254" /></g><path
           id="path50"
           style="fill:#000102;fill-opacity:1;fill-rule:nonzero;stroke:none"
           d="m 265.731,15.76 h -1.581 v 12.588 h 1.581 z m 0.366,16.385 c 0,-0.373 -0.114,-0.67 -0.341,-0.889 -0.228,-0.219 -0.502,-0.328 -0.827,-0.328 -0.324,0 -0.602,0.109 -0.829,0.328 -0.228,0.219 -0.341,0.516 -0.341,0.889 0,0.373 0.113,0.67 0.341,0.889 0.227,0.219 0.505,0.329 0.829,0.329 0.325,0 0.599,-0.11 0.827,-0.329 0.227,-0.219 0.341,-0.516 0.341,-0.889" /><g
           transform="translate(278.585,23.0636)"
           id="g52"><path
             id="path54"
             style="fill:#000102;fill-opacity:1;fill-rule:nonzero;stroke:none"
             d="M 0,0 C -0.033,1.315 -0.341,2.337 -0.926,3.068 -1.509,3.799 -2.338,4.164 -3.409,4.164 -3.978,4.164 -4.485,4.05 -4.929,3.822 -5.376,3.595 -5.767,3.291 -6.1,2.91 -6.433,2.528 -6.691,2.086 -6.879,1.583 -7.065,1.079 -7.173,0.552 -7.207,0 Z m -8.935,-0.997 c 0,1.102 0.158,2.065 0.475,2.885 0.316,0.819 0.729,1.504 1.242,2.056 0.511,0.552 1.096,0.962 1.751,1.231 0.657,0.267 1.337,0.401 2.033,0.401 1.542,0 2.771,-0.504 3.689,-1.509 C 1.173,3.06 1.631,1.51 1.631,-0.584 1.631,-0.714 1.628,-0.843 1.62,-0.974 1.612,-1.104 1.598,-1.225 1.581,-1.338 h -8.838 c 0.05,-1.543 0.43,-2.727 1.146,-3.555 0.713,-0.828 1.85,-1.241 3.409,-1.241 0.86,0 1.543,0.08 2.045,0.242 0.502,0.163 0.868,0.301 1.095,0.415 L 0.73,-6.84 c -0.228,-0.131 -0.652,-0.285 -1.279,-0.464 -0.624,-0.179 -1.359,-0.267 -2.203,-0.267 -1.104,0 -2.044,0.162 -2.824,0.486 -0.779,0.325 -1.42,0.78 -1.922,1.364 -0.505,0.584 -0.871,1.279 -1.096,2.082 -0.227,0.803 -0.341,1.683 -0.341,2.642" /></g><g
           transform="translate(284.2354,27.9096)"
           id="g56"><path
             id="path58"
             style="fill:#000102;fill-opacity:1;fill-rule:nonzero;stroke:none"
             d="m 0,0 c 0.469,0.129 1.104,0.275 1.897,0.438 0.796,0.161 1.77,0.243 2.924,0.243 0.957,0 1.756,-0.137 2.397,-0.413 0.64,-0.276 1.154,-0.67 1.534,-1.182 0.382,-0.51 0.654,-1.123 0.815,-1.838 0.164,-0.714 0.244,-1.502 0.244,-2.362 V -12.15 H 8.23 v 6.526 c 0,0.892 -0.061,1.646 -0.183,2.263 -0.122,0.618 -0.324,1.121 -0.61,1.509 -0.283,0.39 -0.658,0.67 -1.118,0.841 -0.463,0.171 -1.046,0.255 -1.742,0.255 -0.746,0 -1.393,-0.04 -1.936,-0.121 C 2.097,-0.958 1.745,-1.032 1.581,-1.096 V -12.15 l -1.581,0 z" /></g><path
           id="path60"
           style="fill:#000102;fill-opacity:1;fill-rule:nonzero;stroke:none"
           d="m 297.162,23.575 h 5.501 v -1.534 h -5.501 z" /><g
           transform="translate(308.0965,29.9789)"
           id="g62"><path
             id="path64"
             style="fill:#000102;fill-opacity:1;fill-rule:nonzero;stroke:none"
             d="M 0,0 -0.685,0.755 2.541,4.333 5.767,0.755 5.082,0 2.541,2.337 Z M 6.011,-6.915 C 5.978,-5.6 5.67,-4.578 5.085,-3.847 4.502,-3.116 3.673,-2.752 2.602,-2.752 2.033,-2.752 1.526,-2.865 1.082,-3.093 0.635,-3.32 0.244,-3.624 -0.089,-4.005 -0.422,-4.387 -0.68,-4.829 -0.868,-5.333 -1.054,-5.836 -1.162,-6.363 -1.196,-6.915 Z m -8.935,-0.998 c 0,1.103 0.158,2.066 0.475,2.885 0.316,0.82 0.729,1.505 1.242,2.057 0.511,0.552 1.096,0.961 1.751,1.23 0.657,0.268 1.337,0.401 2.033,0.401 1.542,0 2.771,-0.503 3.689,-1.509 0.918,-1.007 1.376,-2.556 1.376,-4.65 0,-0.131 -0.003,-0.26 -0.011,-0.39 C 7.623,-8.019 7.609,-8.14 7.592,-8.254 h -8.837 c 0.049,-1.542 0.429,-2.726 1.145,-3.554 0.713,-0.828 1.85,-1.242 3.409,-1.242 0.86,0 1.543,0.081 2.045,0.243 0.502,0.162 0.868,0.301 1.095,0.415 l 0.292,-1.364 c -0.228,-0.13 -0.652,-0.284 -1.279,-0.463 -0.624,-0.179 -1.359,-0.268 -2.203,-0.268 -1.104,0 -2.044,0.163 -2.823,0.487 -0.78,0.325 -1.421,0.78 -1.923,1.364 -0.505,0.583 -0.871,1.278 -1.095,2.081 -0.228,0.803 -0.342,1.684 -0.342,2.642" /></g><g
           transform="translate(321.2392,28.3479)"
           id="g66"><path
             id="path68"
             style="fill:#000102;fill-opacity:1;fill-rule:nonzero;stroke:none"
             d="M 0,0 H 5.015 V -1.34 H 0 v -6.695 c 0,-0.714 0.061,-1.295 0.183,-1.74 0.122,-0.447 0.297,-0.792 0.524,-1.036 0.228,-0.243 0.502,-0.405 0.827,-0.487 0.325,-0.081 0.682,-0.121 1.071,-0.121 0.665,0 1.201,0.077 1.609,0.23 0.405,0.154 0.721,0.297 0.948,0.428 l 0.389,-1.315 c -0.228,-0.147 -0.625,-0.314 -1.193,-0.499 -0.569,-0.188 -1.185,-0.281 -1.85,-0.281 -0.78,0 -1.432,0.102 -1.959,0.304 -0.527,0.204 -0.951,0.512 -1.267,0.925 -0.317,0.415 -0.539,0.929 -0.669,1.547 -0.13,0.617 -0.194,1.346 -0.194,2.191 L -1.581,3.7 0,3.992 Z" /></g><g
           transform="translate(333.9519,28.5906)"
           id="g70"><path
             id="path72"
             style="fill:#000102;fill-opacity:1;fill-rule:nonzero;stroke:none"
             d="m 0,0 c 0.519,0 1.01,-0.04 1.473,-0.122 0.46,-0.08 0.782,-0.162 0.96,-0.243 L 2.116,-1.728 c -0.13,0.064 -0.393,0.133 -0.79,0.207 -0.397,0.073 -0.921,0.109 -1.57,0.109 -0.682,0 -1.229,-0.048 -1.645,-0.146 -0.413,-0.098 -0.685,-0.178 -0.816,-0.244 v -11.029 h -1.581 v 12.003 c 0.405,0.179 0.966,0.362 1.679,0.548 C -1.892,-0.093 -1.024,0 0,0" /></g><g
           transform="translate(347.4386,23.0636)"
           id="g74"><path
             id="path76"
             style="fill:#000102;fill-opacity:1;fill-rule:nonzero;stroke:none"
             d="M 0,0 C -0.033,1.315 -0.341,2.337 -0.926,3.068 -1.509,3.799 -2.338,4.164 -3.409,4.164 -3.978,4.164 -4.485,4.05 -4.929,3.822 -5.376,3.595 -5.767,3.291 -6.1,2.91 -6.433,2.528 -6.691,2.086 -6.879,1.583 -7.065,1.079 -7.173,0.552 -7.207,0 Z m -8.935,-0.997 c 0,1.102 0.158,2.065 0.475,2.885 0.316,0.819 0.729,1.504 1.242,2.056 0.511,0.552 1.096,0.962 1.751,1.231 0.657,0.267 1.337,0.401 2.033,0.401 1.542,0 2.771,-0.504 3.689,-1.509 C 1.173,3.06 1.631,1.51 1.631,-0.584 1.631,-0.714 1.628,-0.843 1.62,-0.974 1.612,-1.104 1.598,-1.225 1.581,-1.338 h -8.838 c 0.05,-1.543 0.43,-2.727 1.146,-3.555 0.713,-0.828 1.85,-1.241 3.409,-1.241 0.86,0 1.543,0.08 2.045,0.242 0.502,0.163 0.868,0.301 1.095,0.415 L 0.73,-6.84 c -0.228,-0.131 -0.652,-0.285 -1.279,-0.464 -0.624,-0.179 -1.359,-0.267 -2.203,-0.267 -1.104,0 -2.044,0.162 -2.824,0.486 -0.779,0.325 -1.42,0.78 -1.922,1.364 -0.505,0.584 -0.871,1.279 -1.096,2.082 -0.227,0.803 -0.341,1.683 -0.341,2.642" /></g><g
           transform="translate(48.7395,111.2572)"
           id="g78"><path
             id="path80"
             style="fill:#010101;fill-opacity:1;fill-rule:nonzero;stroke:none"
             d="m 0,0 v -14.278 c 0,-1.151 0.933,-2.084 2.083,-2.084 h 8.669 c 5.46,0 9.182,3.227 9.182,9.347 0,6.039 -3.722,9.016 -9.182,9.098 H 2.083 C 0.933,2.083 0,1.151 0,0 m 33.665,-7.015 c 0,-11.083 -7.032,-21.836 -21.424,-21.836 H 2.083 C 0.933,-28.851 0,-29.784 0,-30.935 v -8.571 c 0,-1.151 -0.933,-2.084 -2.083,-2.084 h -9.482 c -1.15,0 -2.083,0.933 -2.083,2.084 v 52.079 c 0,1.151 0.933,2.083 2.083,2.083 h 23.89 c 14.392,0 21.34,-10.753 21.34,-21.671" /></g><g
           transform="translate(101.3188,97.2643)"
           id="g82"><path
             id="path84"
             style="fill:#010101;fill-opacity:1;fill-rule:nonzero;stroke:none"
             d="m 0,0 c 0,-9.01 7.304,-16.233 16.314,-16.233 8.847,0 16.153,7.223 16.153,16.233 0,8.928 -7.306,16.153 -16.153,16.153 C 7.304,16.153 0,8.928 0,0 m 44.804,0 c 0,-15.746 -12.825,-28.571 -28.49,-28.571 -15.828,0 -28.49,12.825 -28.49,28.571 0,15.665 12.662,28.571 28.49,28.571 15.665,0 28.49,-12.906 28.49,-28.571" /></g><g
           transform="translate(194.1293,107.4098)"
           id="g86"><path
             id="path88"
             style="fill:#010101;fill-opacity:1;fill-rule:nonzero;stroke:none"
             d="m 0,0 h -7.43 c -1.201,0 -2.208,0.77 -2.708,1.862 -1.064,2.327 -4.025,4.631 -8.49,4.631 -3.977,0 -8.847,-1.785 -8.847,-4.95 0,-2.679 3.652,-3.734 11.444,-5.764 8.686,-2.272 20.942,-5.194 20.942,-17.369 0,-10.552 -9.254,-17.126 -22.158,-17.126 -14.818,0 -22.242,8.585 -24.062,16.456 -0.453,1.961 1.034,3.836 3.046,3.836 h 7.388 c 1.255,0 2.419,-0.738 2.874,-1.907 1.005,-2.578 3.826,-6.859 11.484,-6.859 5.925,0 8.117,2.515 8.117,4.87 0,3.489 -4.626,4.707 -9.74,5.925 -8.28,1.948 -22.808,5.032 -22.808,17.288 0,10.065 9.902,17.532 22.483,17.532 C -6.179,18.425 1.18,11.243 3.054,3.781 3.539,1.852 1.989,0 0,0" /></g><g
           transform="translate(252.8668,112.5237)"
           id="g90"><path
             id="path92"
             style="fill:#010101;fill-opacity:1;fill-rule:nonzero;stroke:none"
             d="m 0,0 h -13.912 c -1.56,0 -2.824,-1.264 -2.824,-2.824 v -37.208 c 0,-1.56 -1.265,-2.824 -2.825,-2.824 h -7.824 c -1.56,0 -2.824,1.264 -2.824,2.824 v 37.208 c 0,1.56 -1.265,2.824 -2.825,2.824 h -13.913 c -1.56,0 -2.825,1.265 -2.825,2.824 v 6.689 c 0,1.56 1.265,2.824 2.825,2.824 H 0 c 1.56,0 2.824,-1.264 2.824,-2.824 V 2.824 C 2.824,1.265 1.56,0 0,0" /></g><g
           transform="translate(315.2653,97.9944)"
           id="g94"><path
             id="path96"
             style="fill:#010101;fill-opacity:1;fill-rule:nonzero;stroke:none"
             d="m 0,0 c 0,-18.262 -11.526,-29.301 -26.947,-29.301 -15.665,0 -26.298,11.039 -26.298,29.301 v 24.284 c 0,1.426 1.156,2.583 2.582,2.583 h 8.147 c 1.426,0 2.582,-1.157 2.582,-2.583 V 0 c 0,-10.632 4.545,-16.963 12.987,-16.963 8.278,0 13.473,6.331 13.473,16.963 v 24.284 c 0,1.426 1.156,2.583 2.582,2.583 h 8.31 C -1.156,26.867 0,25.71 0,24.284 Z" /></g><g
           transform="translate(338.1505,110.0226)"
           id="g98"><path
             id="path100"
             style="fill:#010101;fill-opacity:1;fill-rule:nonzero;stroke:none"
             d="m 0,0 v -11.8 c 0,-1.381 1.12,-2.501 2.501,-2.501 h 8.945 c 4.545,0 8.197,3.815 8.197,8.441 0,4.546 -3.652,8.361 -8.117,8.361 H 2.501 C 1.12,2.501 0,1.381 0,0 m 33.035,-5.86 c 0,-6.969 -2.991,-13.005 -7.718,-16.521 -1.104,-0.822 -1.422,-2.332 -0.645,-3.469 l 7.234,-10.593 c 1.134,-1.661 -0.055,-3.912 -2.065,-3.912 h -10.41 c -0.876,0 -1.688,0.458 -2.141,1.209 l -6.82,11.299 c -0.453,0.75 -1.266,1.209 -2.142,1.209 H 2.501 C 1.12,-26.638 0,-27.758 0,-29.139 v -8.715 c 0,-1.381 -1.12,-2.501 -2.501,-2.501 h -8.309 c -1.382,0 -2.501,1.12 -2.501,2.501 v 50.191 c 0,1.382 1.119,2.501 2.501,2.501 h 24.204 c 11.2,0 19.641,-8.685 19.641,-20.698" /></g><g
           transform="translate(431.5359,91.3702)"
           id="g102"><path
             id="path104"
             style="fill:#000000;fill-opacity:1;fill-rule:nonzero;stroke:none"
             d="M 0,0 C -0.386,0 -0.735,0.156 -0.988,0.409 -0.735,0.156 -0.386,0 0,0" /></g><g
           transform="translate(430.1391,92.7669)"
           id="g106"><path
             id="path108"
             style="fill:#000000;fill-opacity:1;fill-rule:nonzero;stroke:none"
             d="M 0,0 C 0,-0.193 0.039,-0.377 0.11,-0.544 0.039,-0.377 0,-0.193 0,0" /></g><g
           transform="translate(430.5482,103.0074)"
           id="g110"><path
             id="path112"
             style="fill:#000000;fill-opacity:1;fill-rule:nonzero;stroke:none"
             d="M 0,0 C 0.253,0.253 0.602,0.409 0.988,0.409 0.602,0.409 0.253,0.253 0,0" /></g><g
           transform="translate(405.5182,81.0308)"
           id="g114"><path
             id="path116"
             style="fill:#010101;fill-opacity:1;fill-rule:nonzero;stroke:none"
             d="m 0,0 c -9.01,0 -16.316,7.224 -16.316,16.234 0,8.928 7.306,16.152 16.316,16.152 8.847,0 16.151,-7.224 16.151,-16.152 C 16.151,7.224 8.847,0 0,0 m 22.401,11.736 v 9.253 c 0,1.994 1.623,3.616 3.617,3.616 h 1.205 C 23.626,36.243 12.757,44.804 0,44.804 c -15.828,0 -28.49,-12.906 -28.49,-28.57 0,-15.747 12.662,-28.571 28.49,-28.571 12.86,0 23.79,8.649 27.297,20.457 h -1.279 c -1.994,0 -3.617,1.622 -3.617,3.616" /></g><g
           transform="translate(468.0555,103.3067)"
           id="g118"><path
             id="path120"
             style="fill:#00b2c4;fill-opacity:1;fill-rule:nonzero;stroke:none"
             d="m 0,0 c -0.167,0.071 -0.351,0.11 -0.544,0.11 h -9.971 c -0.385,0 -0.734,0.156 -0.987,0.409 -0.127,0.126 -0.229,0.277 -0.3,0.444 -0.07,0.167 -0.109,0.351 -0.109,0.543 v 10e-4 9.651 c 0,0.771 -0.626,1.396 -1.397,1.396 h -10.449 c -0.385,0 -0.735,-0.156 -0.987,-0.409 -0.253,-0.253 -0.409,-0.602 -0.409,-0.987 V 1.507 c 0,-0.579 -0.352,-1.075 -0.854,-1.288 -0.167,-0.07 -0.35,-0.109 -0.543,-0.109 h -8.191 -1.779 c -0.385,0 -0.735,-0.157 -0.987,-0.409 -0.253,-0.253 -0.409,-0.602 -0.409,-0.988 v -9.253 c 0,-0.193 0.039,-0.376 0.109,-0.543 0.071,-0.168 0.173,-0.318 0.3,-0.444 0.252,-0.253 0.602,-0.41 0.987,-0.41 h 1.852 8.118 c 0.193,0 0.376,-0.039 0.543,-0.109 0.502,-0.212 0.854,-0.709 0.854,-1.287 v -9.731 c 0,-0.579 0.351,-1.075 0.853,-1.287 0.167,-0.071 0.351,-0.11 0.543,-0.11 h 10.449 c 0.193,0 0.376,0.039 0.544,0.11 0.167,0.071 0.317,0.173 0.444,0.299 0.252,0.253 0.409,0.602 0.409,0.988 v 9.731 c 0,0.193 0.039,0.376 0.109,0.543 0.071,0.168 0.173,0.318 0.3,0.444 0.253,0.253 0.602,0.409 0.987,0.409 h 9.971 c 0.193,0 0.377,0.039 0.544,0.11 0.501,0.212 0.853,0.709 0.853,1.287 v 9.253 C 0.853,-0.708 0.501,-0.212 0,0" /></g><g
           transform="translate(456.5533,103.8256)"
           id="g122"><path
             id="path124"
             style="fill:#ffffff;fill-opacity:1;fill-rule:nonzero;stroke:none"
             d="M 0,0 C 0.253,-0.253 0.602,-0.409 0.988,-0.409 0.602,-0.409 0.253,-0.253 0,0" /></g><g
           transform="translate(456.1442,80.2429)"
           id="g126"><path
             id="path128"
             style="fill:#ffffff;fill-opacity:1;fill-rule:nonzero;stroke:none"
             d="M 0,0 C 0,-0.386 -0.156,-0.735 -0.409,-0.988 -0.156,-0.735 0,-0.386 0,0" /></g><g
           transform="translate(456.1442,89.9735)"
           id="g130"><path
             id="path132"
             style="fill:#ffffff;fill-opacity:1;fill-rule:nonzero;stroke:none"
             d="M 0,0 C 0,0.193 0.039,0.377 0.11,0.544 0.039,0.377 0,0.193 0,0" /></g><g
           transform="translate(457.541,91.3702)"
           id="g134"><path
             id="path136"
             style="fill:#ffffff;fill-opacity:1;fill-rule:nonzero;stroke:none"
             d="M 0,0 C -0.386,0 -0.735,-0.156 -0.988,-0.409 -0.735,-0.156 -0.386,0 0,0" /></g><g
           transform="translate(456.2539,104.2694)"
           id="g138"><path
             id="path140"
             style="fill:#ffffff;fill-opacity:1;fill-rule:nonzero;stroke:none"
             d="m 0,0 c -0.071,0.167 -0.11,0.351 -0.11,0.544 v 0 C -0.11,0.351 -0.071,0.167 0,0" /></g><g
           transform="translate(468.9086,102.0198)"
           id="g142"><path
             id="path144"
             style="fill:#ffffff;fill-opacity:1;fill-rule:nonzero;stroke:none"
             d="M 0,0 V -9.253 C 0,-9.831 -0.352,-10.328 -0.853,-10.54 -0.352,-10.328 0,-9.831 0,-9.253 V 0 C 0,0.578 -0.352,1.075 -0.853,1.287 -0.352,1.075 0,0.578 0,0" /></g><g
           transform="translate(454.7475,115.861)"
           id="g146"><path
             id="path148"
             style="fill:#ffffff;fill-opacity:1;fill-rule:nonzero;stroke:none"
             d="M 0,0 C 0.771,0 1.397,-0.625 1.397,-1.397 1.397,-0.625 0.771,0 0,0 h -10.449 c -0.385,0 -0.734,-0.156 -0.987,-0.409 0.253,0.253 0.602,0.409 0.987,0.409 z" /></g><path
           id="path150"
           style="fill:#00b2c4;fill-opacity:1;fill-rule:nonzero;stroke:none"
           d="m 288.645,174.131 h -85.463 v 89.779 h 85.463 z m 2.219,94.218 h -89.902 c -1.226,0 -2.219,-0.993 -2.219,-2.22 v -94.218 c 0,-1.227 0.993,-2.219 2.219,-2.219 h 89.902 c 1.226,0 2.22,0.992 2.22,2.219 v 94.218 c 0,1.227 -0.994,2.22 -2.22,2.22" /><g
           transform="translate(248.7833,214.2732)"
           id="g152"><path
             id="path154"
             style="fill:#88cbd8;fill-opacity:1;fill-rule:nonzero;stroke:none"
             d="m 0,0 c -0.678,1.008 -1.356,2.028 -2.028,3.057 1.696,4.129 3.786,8.269 6.03,12.604 4.918,9.5 7.903,19.133 4.14,29.537 -0.784,2.169 -10.453,-2.873 -9.307,-6.044 3.87,-10.703 -0.382,-19.91 -5.192,-29.027 -3.216,5.731 -5.787,11.807 -6.607,18.345 -1.477,11.788 3.887,22.097 9.377,32.102 1.514,2.76 -4.937,2.214 -6.018,0.245 -9.429,-17.186 -13.542,-32.334 -4.159,-50.609 1.181,-2.3 2.497,-4.56 3.888,-6.799 -0.606,-1.197 -1.196,-2.397 -1.741,-3.606 -4.741,-10.532 -5.311,-21.203 -2.427,-32.317 0.51,-1.966 10.187,2.657 9.308,6.044 -2.099,8.087 -1.72,15.131 0.093,21.911 9.498,-13.97 19.558,-27.812 16.624,-45.646 -0.432,-2.627 6.065,-1.57 6.446,0.749 C 21.592,-30.214 10.162,-15.114 0,0" /></g><g
           transform="translate(242.9628,238.7695)"
           id="g156"><path
             id="path158"
             style="fill:#88cbd8;fill-opacity:1;fill-rule:nonzero;stroke:none"
             d="M 0,0 C 6.249,0 7.981,8.188 0.734,8.188 -5.515,8.188 -7.247,0 0,0" /></g></g></g></g></svg>