<svg id="Layer_1" data-name="Layer 1" xmlns="http://www.w3.org/2000/svg" viewBox="0 0 378.23 612"><defs><style>.cls-1{fill:#88cbd8;}</style></defs><title>Over-Element Posturoplus</title><path class="cls-1" d="M189.35,335.36q-4.51-6.71-9-13.57c7.53-18.33,16.81-36.7,26.77-55.95,21.83-42.17,35.08-84.93,18.38-131.12-3.48-9.63-46.4,12.76-41.31,26.83,17.18,47.51-1.7,88.38-23,128.85C146.85,265,135.44,238,131.8,209c-6.56-52.33,17.25-98.09,41.62-142.5,6.72-12.25-21.92-9.83-26.71-1.09C104.86,141.67,86.6,208.92,128.25,290c5.24,10.21,11.08,20.25,17.26,30.18-2.69,5.31-5.31,10.64-7.72,16C116.73,383,114.2,430.35,127,479.69c2.26,8.72,45.22-11.8,41.31-26.83-9.32-35.9-7.63-67.17.42-97.26,42.16,62,86.82,123.46,73.79,202.62-1.92,11.66,26.92,7,28.62-3.33C285.2,469.48,234.46,402.45,189.35,335.36Z"/><path class="cls-1" d="M163.51,226.62c27.74,0,35.43-36.35,3.26-36.35C139,190.28,131.34,226.62,163.51,226.62Z"/></svg>